<svg xmlns="http://www.w3.org/2000/svg" height="48" viewBox="0 -960 960 960" width="48"><path d="M461-211h36v-48q47-2 86-29.496t39-84.425q0-45.579-27-74.329Q568-476 495.545-503 429-528 409.5-545.477 390-562.955 390-596.049 390-627 415.528-649T482-671q31.471 0 52.235 13.5Q555-644 570-621l31-13q-17-30-43.5-48T499-702.057V-749h-36v47q-53 8-80.5 37.958T355-596q0 45 28 71.5t94 50.5q66 26 88.5 45.946Q588-408.108 588-373q0 42.938-32 62.469T485.564-291q-35.436 0-65-20.5T374-369l-32 13q19 41 49 63t70 31.349V-211Zm18.542 95q-75.182 0-141.022-29.02-65.84-29.02-115.16-78.34-49.32-49.32-78.34-115.291Q116-404.622 116-480q0-75.272 29.079-141.649 29.079-66.378 78.686-115.97 49.606-49.592 115.216-77.986Q404.59-844 479.557-844q75.329 0 142.012 28.395 66.683 28.394 116.057 78Q787-688 815.5-621.458q28.5 66.541 28.5 142 0 75.458-28.395 140.797-28.394 65.338-77.986 114.921-49.592 49.582-116.116 78.661T479.542-116Zm.458-35q136.513 0 232.756-96.244Q809-343.487 809-480t-96.244-232.756Q616.513-809 480-809t-232.756 96.244Q151-616.513 151-480t96.244 232.756Q343.487-151 480-151Zm0-329Z"/></svg>