<svg xmlns="http://www.w3.org/2000/svg" height="48" viewBox="0 -960 960 960" width="48"><path d="M597-197H334q-27.475 0-47.237-19.762Q267-236.525 267-264v-420h35v420q0 12 10 22t22 10h263v35ZM422.956-699Q395-699 374.5-719.397 354-739.795 354-768.544q0-28.75 20.544-49.103Q395.089-838 423.044-838 452-838 472.5-817.603q20.5 20.398 20.5 49.147 0 28.75-20.544 49.103Q451.911-699 422.956-699ZM658-94v-179H403q-24.825 0-42.412-17.794Q343-308.588 343-333v-235q0-33.68 22.838-56.84 22.838-23.16 57.5-23.16T481-624.84q23 23.16 23 56.84v220h130q23.825 0 41.412 17.294Q693-313.412 693-289v195h-35Z"/></svg>