<svg xmlns="http://www.w3.org/2000/svg" height="48" viewBox="0 -960 960 960" width="48"><path d="M731.867-121q-7.776 0-13.822-3Q712-127 708-132L509-332q-5.182-3.929-8.091-9.579Q498-347.229 498-354.4q0-7.171 2.909-12.921 2.909-5.75 8.091-10.679l71-71q3.929-4.182 9.77-7.591Q595.61-460 603-460q7.026 0 12.549 3.409Q621.071-453.182 627-449l200 200q4 4 7 10.2 3 6.2 3 14t-2.909 13.4q-2.909 5.6-7.091 9.4l-71 71q-4.929 4.182-10.812 7.091Q739.305-121 731.867-121Zm.133-35 69-69-199-200-69 69 199 200Zm-505.133 34q-7.867 0-13.51-2.5T204-132l-71-70q-5-3.714-7.5-9.551-2.5-5.836-2.5-13.643 0-7.806 2.5-13.906 2.5-6.1 7.252-10.652L329-446h93l33-33-167-168h-57L118-759l82-82 113 112v57l167 168 122-122-90-90 36-36h-71l-17-15 110-110 16 15v72l35-35 176.931 173.931q13.04 13.486 20.555 31.203Q826-602.149 826-582.5q0 12.147-5 25.823Q816-543 810-531l-81-81-57 57-46-46-180 180v95L250.752-131.752q-4.681 4.752-10.564 7.252t-13.321 2.5Zm.133-35 196-196v-69h-69L158-226l69 69Zm0 0-69-69 34.862 34.138L227-157Zm505 1 69-69-69 69Z"/></svg>