<svg xmlns="http://www.w3.org/2000/svg" height="48" viewBox="0 -960 960 960" width="48"><path d="M480-117q-121-36-202-148.056-81-112.056-81-252.874v-216.651L480-841l283 106.396V-518q0 66.731-19 131.866Q725-321 681-260L553-387q-15.9 12-34.425 18.5T480-362q-49.625 0-84.312-34.791Q361-431.581 361-480.841q0-49.259 34.578-84.209Q430.157-600 479.628-600q49.472 0 84.422 34.838Q599-530.325 599-481q0 19.064-6.5 36.532Q586-427 577-412l98 97q25.429-44 39.214-94.5Q728-460 728-518v-194.516L480-803l-248 90.552v194.658Q232-394 302-291.5 372-189 479.8-153q26.929-7.84 56.684-25.09Q566.24-195.34 589-214l22 26q-30 25-62.5 42.5T480-117Zm.327-280Q514-397 539-421.655t25-59.969Q564-515 538.673-540q-25.328-25-59-25Q446-565 421-539.876t-25 58.5q0 35.314 25.327 59.845 25.328 24.531 59 24.531ZM484-477Z"/></svg>