<svg xmlns="http://www.w3.org/2000/svg" height="48" viewBox="0 -960 960 960" width="48"><path d="m315-546 167-273 167 273H315ZM705.5-98Q643-98 600-142.083q-43-44.084-43-107.417 0-62.5 43-105.5t105.5-43q63.333 0 107.417 43Q857-312 857-249t-44.083 107Q768.833-98 705.5-98ZM149-122v-257h257v257H149Zm557.169-11Q754-133 788-166.444q34-33.443 34-82Q822-297 787.944-330q-34.057-33-82.388-33t-80.943 33.044Q592-296.913 592-248.056 592-200 624.769-166.5t81.4 33.5ZM184-157h187v-187H184v187Zm193-424h212L482-750 377-581Zm106 0ZM371-344Zm336 96Z"/></svg>