<svg xmlns="http://www.w3.org/2000/svg" height="48" viewBox="0 -960 960 960" width="48"><path d="m658-271 28-28q6-5.909 6-14.955Q692-323 686-329L524-491q7-13 10.5-28.5T538-551q0-54.63-38.978-93.315Q460.043-683 405-683q-19 0-33.4 4.912Q357.2-673.176 344-666l77 77-52 51-78-76q-9 14-12.5 29t-3.5 33q0 54.043 37.978 92.522Q350.957-421 406-421q16.889 0 32.444-3.5Q454-428 467-435l161 163q6.727 7 14.864 7.5Q651-264 658-271ZM480.174-116q-75.814 0-141.712-28.911-65.899-28.912-115.234-78.188-49.336-49.277-78.282-115.095Q116-404.012 116-479.826q0-75.07 28.97-141.694 28.971-66.623 78.348-116.126 49.378-49.502 115.094-77.928Q404.128-844 479.826-844q75.06 0 141.676 28.391 66.615 28.392 116.13 77.848 49.516 49.457 77.942 116.018Q844-555.181 844-480.091q0 76.091-28.391 141.649-28.392 65.559-77.835 114.996-49.443 49.436-115.987 78.441Q555.244-116 480.174-116ZM480-151q136.513 0 232.756-96.244Q809-343.487 809-480t-96.244-232.756Q616.513-809 480-809t-232.756 96.244Q151-616.513 151-480t96.244 232.756Q343.487-151 480-151Zm0-329Z"/></svg>