<svg xmlns="http://www.w3.org/2000/svg" height="48" viewBox="0 -960 960 960" width="48"><path d="M219.882-191q-43.382 0-74.132-30.917Q115-252.833 115-297H63v-399q0-27.5 19.75-47.25T130-763h534v149h88l145 193v124h-63q0 44.167-30.951 75.083Q772.098-191 727.882-191q-43.382 0-73.632-30.917Q624-252.833 624-297H326q0 45-31.368 75.5-31.367 30.5-74.75 30.5Zm.6-35Q250-226 270.5-246.482q20.5-20.483 20.5-50Q291-326 270.518-346.5q-20.483-20.5-50-20.5Q191-367 170.5-346.518q-20.5 20.483-20.5 50Q150-267 170.482-246.5q20.483 20.5 50 20.5ZM98-332h23q9-29 37.071-49.5 28.072-20.5 62.143-20.5 32.072 0 60.929 20.5T319-332h310v-396H130q-12 0-22 10t-10 22v364Zm630.482 106Q758-226 778.5-246.482q20.5-20.483 20.5-50Q799-326 778.518-346.5q-20.483-20.5-50-20.5Q699-367 678.5-346.518q-20.5 20.483-20.5 50Q658-267 678.482-246.5q20.483 20.5 50 20.5ZM664-415h195L733-579h-69v164ZM364-527Z"/></svg>