<svg xmlns="http://www.w3.org/2000/svg" height="48" viewBox="0 -960 960 960" width="48"><path d="M573-515h258v-180H573v180Zm129-41-100-71.727V-664l100.5 72 99.5-72v36l-100 72ZM102-172q-27.5 0-47.25-19.75T35-239v-483q0-27.5 19.75-47.25T102-789h756q27.5 0 47.25 19.75T925-722v483q0 27.5-19.75 47.25T858-172H102Zm492-35h264q12 0 22-10t10-22v-483q0-12-10-22t-22-10H102q-12 0-22 10t-10 22v483q0 12 10 22t22 10h31q43-52 101.735-85.5T364-326q68 0 127 33.5T594-207ZM364-401q42 0 71.5-29.458Q465-459.917 465-503q0-42-29.5-71.5t-72-29.5q-43.5 0-72.5 29.5t-29 72q0 42.5 28.958 72Q319.917-401 364-401ZM181-207h364q-35.309-39.275-82.623-61.638Q415.063-291 363.032-291q-52.032 0-99.583 21.925T181-207Zm183.263-229q-27.313 0-47.288-19.601Q297-475.202 297-502.351t19.601-46.899Q336.202-569 363.351-569t46.899 19.424Q430-530.151 430-503.263q0 27.313-19.424 47.288Q391.151-436 364.263-436ZM480-481Z"/></svg>