<svg xmlns="http://www.w3.org/2000/svg" height="48" viewBox="0 -960 960 960" width="48"><path d="M483.973-262.923q12.642 0 21.681-9.396 9.038-9.396 9.038-22.038 0-11.874-9.011-21.297t-21.654-9.423q-12.642 0-22.066 9.396-9.423 9.396-9.423 21.269 0 12.643 9.396 22.066 9.396 9.423 22.039 9.423ZM457.615-399h44.077q.77-25.247 8.308-44.239 7.539-18.992 36.077-44.607 28.692-25.769 41.423-48.612 12.731-22.842 12.731-51.315 0-49.336-32.539-79.051-32.539-29.715-81.992-29.715-45.239 0-78.2 23.039-32.962 23.038-48.423 57.731l40.692 16.307q9.769-24.692 29.346-40.538 19.577-15.846 53.116-15.846 37.384 0 57.615 20.577t20.231 49.346q0 21.231-12.176 38.808-12.176 17.576-32.901 36.269-31.462 28-44.423 53.615-12.962 25.616-12.962 58.231Zm22.06 295q-77.623 0-145.815-29.859-68.193-29.86-119.141-80.762-50.947-50.902-80.833-119.164Q104-402.047 104-479.866q0-77.944 29.918-146.559 29.919-68.615 81.107-119.834 51.189-51.22 119.09-80.48Q402.015-856 479.423-856q78.002 0 146.922 29.234t119.922 80.421q51.001 51.188 80.367 119.905Q856-557.723 856-479.592q0 77.9-29.234 145.591T746.358-215.1q-51.174 51.21-119.873 81.155Q557.786-104 479.675-104Zm.325-43.769q137.897 0 235.064-97.282Q812.231-342.334 812.231-480q0-137.897-97.167-235.064T480-812.231q-137.666 0-234.949 97.167Q147.769-617.897 147.769-480q0 137.666 97.282 234.949Q342.334-147.769 480-147.769ZM480-480Z"/></svg>