<svg xmlns="http://www.w3.org/2000/svg" height="48" viewBox="0 -960 960 960" width="48"><path d="M93-202v-62q0-30.011 14.188-49.36 14.187-19.348 41.801-31.749Q203-369 251.969-384T376.5-399q75.562 0 124.031 15Q549-369 604.055-345.087q25.757 12.105 40.351 31.539Q659-294.113 659-264v62H93Zm643 0v-61q0-37-12.947-69.482T687-388q34 8 66 18.5t59.92 23.963q23.918 12.305 39.499 34.581Q868-288.679 868-263v61H736ZM376.5-516q-51.6 0-85.55-33.95Q257-583.9 257-635q0-51.1 33.95-85.05Q324.9-754 376-754q51.1 0 85.05 33.838Q495-686.325 495-635.5q0 51.6-33.838 85.55Q427.325-516 376.5-516ZM664-635.5q0 51.6-33.827 85.55Q596.346-516 545.178-516q-3.178 0-5.678-.5T535-518q18.321-24.175 27.161-53.613Q571-601.05 571-634.83q0-33.779-10-61.974Q551-725 535-753q1.75.25 5-.375t5-.625q51.325 0 85.162 33.838Q664-686.325 664-635.5ZM128-237h496v-27q0-16-7.325-27.674T589-314q-50-25-98-37.5T376-364q-67 0-115 12.5T164-314q-20.35 10.652-28.175 22.326Q128-280 128-264v27Zm247.708-314Q411-551 435.5-575.208t24.5-59.5Q460-670 435.376-694.5T375.46-719q-35.292 0-59.376 24.624Q292-669.752 292-634.46t24.208 59.376Q340.416-551 375.708-551ZM376-237Zm0-398Z"/></svg>